<svg id="Layer_1" data-name="Layer 1" xmlns="http://www.w3.org/2000/svg" viewBox="0 0 191.06 191.06">
    <defs>
        <style>.cls-1{fill:#ee3567;}.cls-2{fill:none;}</style>
    </defs>
    <title>p5-logo</title>
    <path class="cls-1"
          d="M168.45,79.43l5.17,7.33-5.24,3.81-5.45-7.22-5.31,7-5.11-3.89,5.17-7.08-8.39-3,2-6.09L159.69,73V64.3h6.75V73l8.36-2.53,2,6.09ZM14.91,92v86H29.24v-36.3h.23a19.06,19.06,0,0,0,7.82,6.81A24.91,24.91,0,0,0,48.46,151a27.27,27.27,0,0,0,11.76-2.44A26.86,26.86,0,0,0,69.05,142a29.08,29.08,0,0,0,5.61-9.67,35.1,35.1,0,0,0,2-11.88,33.89,33.89,0,0,0-2-11.82,29.13,29.13,0,0,0-5.73-9.55,26.75,26.75,0,0,0-20.06-8.72,26,26,0,0,0-7.11.9A27,27,0,0,0,36,93.51a18.65,18.65,0,0,0-4.24,3.1A21,21,0,0,0,29,100h-.36V92Zm46.15,35.1a18.58,18.58,0,0,1-3.05,6,15.72,15.72,0,0,1-5.13,4.3,15.09,15.09,0,0,1-7.29,1.67,15,15,0,0,1-7-1.61,17.13,17.13,0,0,1-5.31-4.23,18.55,18.55,0,0,1-3.35-5.92,20,20,0,0,1-1.13-6.62A20.61,20.61,0,0,1,29.89,114a18.27,18.27,0,0,1,3.35-6,17.92,17.92,0,0,1,5.31-4.29,14.56,14.56,0,0,1,7-1.68,15.67,15.67,0,0,1,7.29,1.61A15.44,15.44,0,0,1,58,107.89a18.86,18.86,0,0,1,3.05,5.91,22.56,22.56,0,0,1,1,6.63A23.15,23.15,0,0,1,61.06,127.12Zm75.41-16.9a23.53,23.53,0,0,0-6.15-8.36,27.36,27.36,0,0,0-9.25-5.19,35.94,35.94,0,0,0-11.52-1.79q-2.26,0-5.07.24a24.52,24.52,0,0,0-4.84.84l.84-18.27H135V64.8H86.87L85.43,111a34.22,34.22,0,0,1,4.36-1.79q2.44-.84,5-1.49a45.1,45.1,0,0,1,5.25-1,38.24,38.24,0,0,1,5.07-.36,29.89,29.89,0,0,1,6.81.78,16.47,16.47,0,0,1,6,2.74,14.85,14.85,0,0,1,4.36,5.2,17.59,17.59,0,0,1,1.67,8.12,17.81,17.81,0,0,1-1.26,6.86,14.32,14.32,0,0,1-3.4,5.07,14.69,14.69,0,0,1-5,3.11,17.15,17.15,0,0,1-6.09,1.07,16.36,16.36,0,0,1-9.91-3,16.62,16.62,0,0,1-6-8.06l-.16.06L81.83,138A27.93,27.93,0,0,0,90,146.52q7.27,4.95,17.91,4.95a34.9,34.9,0,0,0,11.94-2,28.85,28.85,0,0,0,9.79-5.85,27.73,27.73,0,0,0,6.63-9.37,31.12,31.12,0,0,0,2.44-12.6A27.8,27.8,0,0,0,136.47,110.22Z"/>
    <rect class="cls-2" width="191.06" height="191.06"/>
</svg>